<svg width="143" height="30" viewBox="0 0 143 30" fill="none" xmlns="http://www.w3.org/2000/svg">
<g opacity="0.6">
<mask id="mask0_1_385" style="mask-type:luminance" maskUnits="userSpaceOnUse" x="0" y="1" width="29" height="29">
<path d="M28.52 1.22852H0V29.8425H28.52V1.22852Z" fill="white"/>
</mask>
<g mask="url(#mask0_1_385)">
<path d="M14.26 29.8425C11.4284 29.8518 8.65768 29.0206 6.29874 27.4542C3.93979 25.8878 2.09871 23.6566 1.00864 21.0431C-0.0814379 18.4297 -0.371519 15.5516 0.1752 12.7732C0.72192 9.99484 2.08082 7.4412 4.0798 5.43563C6.07879 3.43005 8.62795 2.06274 11.4045 1.50688C14.1811 0.951025 17.0602 1.2316 19.6772 2.31307C22.2942 3.39454 24.5314 5.22827 26.1056 7.58205C27.6797 9.93583 28.52 12.7038 28.52 15.5354C28.5219 19.3223 27.0216 22.9554 24.3483 25.6375C21.675 28.3196 18.0469 29.8319 14.26 29.8425ZM14.26 2.11446C11.6038 2.10575 9.00463 2.88546 6.79178 4.35488C4.57893 5.82429 2.85187 7.91733 1.82931 10.3689C0.80676 12.8205 0.534703 15.5204 1.04758 18.1267C1.56045 20.733 2.83516 23.1285 4.71036 25.0099C6.58555 26.8912 8.9769 28.1738 11.5815 28.6953C14.1861 29.2167 16.8869 28.9535 19.3418 27.939C21.7968 26.9245 23.8954 25.2043 25.3721 22.9963C26.8488 20.7883 27.637 18.1917 27.637 15.5354C27.6381 11.9836 26.2303 8.5764 23.7226 6.06114C21.2148 3.54589 17.8118 2.12799 14.26 2.11846" fill="white"/>
</g>
</g>
<g opacity="0.6">
<mask id="mask1_1_385" style="mask-type:luminance" maskUnits="userSpaceOnUse" x="38" y="1" width="29" height="29">
<path d="M66.52 1.22852H38.001V29.8425H66.52V1.22852Z" fill="white"/>
</mask>
<g mask="url(#mask1_1_385)">
<path d="M52.26 29.8425C49.4284 29.8518 46.6577 29.0206 44.2987 27.4542C41.9398 25.8878 40.0987 23.6566 39.0086 21.0431C37.9186 18.4297 37.6285 15.5516 38.1752 12.7732C38.7219 9.99484 40.0808 7.4412 42.0798 5.43563C44.0788 3.43005 46.6279 2.06274 49.4045 1.50688C52.1811 0.951025 55.0602 1.2316 57.6772 2.31307C60.2942 3.39454 62.5314 5.22827 64.1056 7.58205C65.6797 9.93583 66.52 12.7038 66.52 15.5354C66.5219 19.3223 65.0216 22.9554 62.3483 25.6375C59.675 28.3196 56.0469 29.8319 52.26 29.8425ZM52.26 2.11446C49.6038 2.10575 47.0046 2.88546 44.7918 4.35488C42.5789 5.82429 40.8519 7.91733 39.8293 10.3689C38.8068 12.8205 38.5347 15.5204 39.0476 18.1267C39.5604 20.733 40.8352 23.1285 42.7104 25.0099C44.5856 26.8912 46.9769 28.1738 49.5815 28.6953C52.1861 29.2167 54.8869 28.9535 57.3418 27.939C59.7968 26.9245 61.8954 25.2043 63.3721 22.9963C64.8488 20.7883 65.637 18.1917 65.637 15.5354C65.6381 11.9836 64.2303 8.5764 61.7226 6.06114C59.2148 3.54589 55.8118 2.12799 52.26 2.11846" fill="white"/>
</g>
</g>
<g opacity="0.6">
<mask id="mask2_1_385" style="mask-type:luminance" maskUnits="userSpaceOnUse" x="76" y="1" width="29" height="29">
<path d="M104.52 1.22852H76.001V29.8425H104.52V1.22852Z" fill="white"/>
</mask>
<g mask="url(#mask2_1_385)">
<path d="M90.261 29.8424C87.4293 29.8519 84.6584 29.0209 82.2994 27.4547C79.9403 25.8884 78.0991 23.6572 77.0088 21.0438C75.9186 18.4304 75.6284 15.5523 76.175 12.7738C76.7216 9.9954 78.0804 7.44162 80.0794 5.43595C82.0783 3.43027 84.6275 2.0629 87.4041 1.50696C90.1807 0.951021 93.0598 1.23152 95.6769 2.31296C98.2939 3.3944 100.531 5.22814 102.105 7.58194C103.68 9.93575 104.52 12.7037 104.52 15.5354C104.522 19.3221 103.022 22.955 100.349 25.6371C97.6754 28.3192 94.0477 29.8316 90.261 29.8424ZM90.261 2.11444C87.6046 2.10554 85.0054 2.88508 82.7925 4.35437C80.5795 5.82367 78.8523 7.91663 77.8296 10.3682C76.8069 12.8198 76.5346 15.5197 77.0474 18.126C77.5602 20.7324 78.8348 23.128 80.7099 25.0095C82.5851 26.891 84.9764 28.1737 87.581 28.6952C90.1857 29.2167 92.8865 28.9536 95.3415 27.9391C97.7965 26.9246 99.8952 25.2044 101.372 22.9964C102.849 20.7884 103.637 18.1918 103.637 15.5354C103.638 11.9838 102.23 8.57673 99.7229 6.0615C97.2153 3.54627 93.8126 2.12824 90.261 2.11844" fill="white"/>
</g>
</g>
<g opacity="0.6">
<mask id="mask3_1_385" style="mask-type:luminance" maskUnits="userSpaceOnUse" x="114" y="0" width="29" height="30">
<path d="M142.52 0.887695H114.001V29.5017H142.52V0.887695Z" fill="white"/>
</mask>
<g mask="url(#mask3_1_385)">
<path d="M128.261 29.5036C125.429 29.5133 122.658 28.6824 120.299 27.1161C117.939 25.5499 116.098 23.3187 115.007 20.7051C113.917 18.0915 113.626 15.2131 114.173 12.4344C114.72 9.65572 116.078 7.10171 118.077 5.09579C120.076 3.08988 122.626 1.72229 125.403 1.16623C128.179 0.610168 131.059 0.890653 133.676 1.97214C136.293 3.05362 138.531 4.88747 140.105 7.24145C141.68 9.59544 142.52 12.3637 142.52 15.1956C142.522 18.9825 141.022 22.6156 138.349 25.2979C135.676 27.9803 132.048 29.4928 128.261 29.5036ZM128.261 1.77463C125.604 1.76552 123.005 2.54499 120.791 4.01431C118.578 5.48364 116.851 7.57674 115.828 10.0285C114.805 12.4803 114.533 15.1805 115.045 17.7872C115.558 20.3938 116.833 22.7897 118.708 24.6714C120.584 26.5531 122.975 27.8359 125.58 28.3574C128.185 28.8789 130.886 28.6157 133.341 27.601C135.797 26.5863 137.895 24.8659 139.372 22.6575C140.849 20.4492 141.637 17.8522 141.637 15.1956C141.639 11.6434 140.232 8.23543 137.724 5.71939C135.216 3.20335 131.813 1.78469 128.261 1.77463Z" fill="white"/>
</g>
</g>
<path d="M11.214 18.2514H10.248C10.1063 18.258 9.9649 18.2349 9.8327 18.1836C9.7005 18.1323 9.58046 18.054 9.48029 17.9537C9.38012 17.8533 9.302 17.7331 9.25098 17.6008C9.19995 17.4685 9.17712 17.327 9.18396 17.1854C9.18396 15.4067 9.18396 13.6281 9.18396 11.8494C9.17683 11.7077 9.19946 11.5662 9.25031 11.4337C9.30115 11.3013 9.37914 11.181 9.47925 11.0805C9.57936 10.98 9.69938 10.9016 9.83161 10.8503C9.96383 10.7989 10.1053 10.7758 10.247 10.7824H18.272C18.4137 10.7757 18.5553 10.7986 18.6876 10.8499C18.8199 10.9012 18.94 10.9797 19.0401 11.0802C19.1402 11.1807 19.2182 11.3011 19.269 11.4336C19.3198 11.566 19.3422 11.7077 19.335 11.8494C19.335 13.6287 19.335 15.4074 19.335 17.1854C19.3421 17.3271 19.3195 17.4688 19.2686 17.6012C19.2177 17.7336 19.1396 17.8539 19.0394 17.9543C18.9391 18.0548 18.819 18.1331 18.6866 18.1843C18.5543 18.2354 18.4127 18.2583 18.271 18.2514C16.953 18.2514 15.6346 18.2514 14.316 18.2514C14.2479 18.253 14.1821 18.2761 14.128 18.3174C13.3753 18.9174 12.6237 19.5194 11.873 20.1234C11.837 20.1524 11.802 20.1814 11.765 20.2094C11.716 20.2503 11.6561 20.276 11.5927 20.2835C11.5293 20.2909 11.4651 20.2798 11.408 20.2514C11.3479 20.224 11.2973 20.1793 11.2628 20.123C11.2282 20.0667 11.2112 20.0014 11.214 19.9354C11.214 19.4154 11.214 18.8954 11.214 18.3764V18.2514ZM14.26 14.1774H16.26C16.5 14.1774 16.739 14.1774 16.979 14.1774C17.0629 14.1753 17.1429 14.142 17.2034 14.0839C17.2639 14.0257 17.3005 13.9471 17.306 13.8634C17.3113 13.7815 17.287 13.7004 17.2374 13.635C17.1878 13.5696 17.1163 13.5243 17.036 13.5074C16.9907 13.5005 16.9448 13.4982 16.899 13.5004H11.623C11.591 13.5004 11.559 13.5004 11.528 13.5004C11.464 13.5045 11.4025 13.5273 11.3511 13.5658C11.2998 13.6044 11.2609 13.657 11.239 13.7174C11.2184 13.7704 11.2114 13.8277 11.2188 13.8841C11.2262 13.9404 11.2477 13.994 11.2813 14.0399C11.3148 14.0857 11.3595 14.1224 11.411 14.1464C11.4625 14.1705 11.5193 14.1811 11.576 14.1774C12.4713 14.1774 13.3666 14.1774 14.262 14.1774M12.908 15.5354C13.349 15.5354 13.789 15.5354 14.23 15.5354C14.3064 15.5341 14.3813 15.5138 14.448 15.4764C14.509 15.4392 14.5557 15.3827 14.5808 15.3158C14.6058 15.2489 14.6076 15.1755 14.586 15.1074C14.5658 15.0335 14.521 14.9686 14.459 14.9235C14.3971 14.8784 14.3216 14.8558 14.245 14.8594C13.3643 14.8594 12.4833 14.8594 11.602 14.8594C11.5533 14.8528 11.5037 14.8567 11.4566 14.8709C11.4095 14.8851 11.3661 14.9092 11.3292 14.9417C11.2922 14.9742 11.2627 15.0142 11.2426 15.0591C11.2225 15.1039 11.2123 15.1526 11.2127 15.2018C11.2131 15.2509 11.224 15.2995 11.2448 15.344C11.2655 15.3886 11.2956 15.4282 11.3329 15.4601C11.3703 15.4921 11.4142 15.5156 11.4615 15.5291C11.5088 15.5426 11.5584 15.5458 11.607 15.5384H12.907" fill="white"/>
<path d="M84.865 14.2074V13.7184C84.87 13.6804 84.879 13.6434 84.883 13.6064C84.9355 13.0292 85.1326 12.4744 85.456 11.9934C85.7093 11.6112 86.0508 11.2954 86.4517 11.0728C86.8525 10.8501 87.3011 10.7271 87.7595 10.714C88.2178 10.701 88.6727 10.7984 89.0856 10.9979C89.4985 11.1974 89.8573 11.4932 90.132 11.8604C90.173 11.9104 90.212 11.9604 90.257 12.0204C90.306 11.9574 90.343 11.9064 90.384 11.8574C90.699 11.4254 91.1323 11.0935 91.6315 10.9019C92.1308 10.7103 92.6748 10.6671 93.198 10.7774C93.7129 10.8667 94.1934 11.0958 94.5869 11.4397C94.9803 11.7836 95.2717 12.2291 95.429 12.7274C95.6321 13.2704 95.6997 13.8548 95.626 14.4298C95.5523 15.0048 95.3395 15.5532 95.006 16.0274C94.6341 16.5928 94.1885 17.106 93.681 17.5534C92.694 18.4364 91.692 19.3044 90.692 20.1744C90.6324 20.2325 90.5618 20.2782 90.4844 20.3087C90.4069 20.3393 90.3242 20.3541 90.241 20.3523C90.1578 20.3506 90.0758 20.3322 89.9997 20.2984C89.9236 20.2646 89.8551 20.216 89.798 20.1554C89.0293 19.4888 88.2627 18.8238 87.498 18.1604C86.8403 17.6137 86.2429 16.9982 85.716 16.3244C85.374 15.8845 85.1244 15.3801 84.982 14.8414C84.932 14.6334 84.906 14.4204 84.869 14.2094" fill="white"/>
<path d="M47.207 14.2245V13.9665C47.2133 13.9553 47.2187 13.9436 47.223 13.9315C47.2544 13.7528 47.3374 13.5873 47.4618 13.4552C47.5862 13.3232 47.7465 13.2305 47.923 13.1885C49.905 12.5925 51.8866 11.9955 53.868 11.3975C54.8773 11.0935 55.887 10.7902 56.897 10.4875C56.9615 10.4665 57.0301 10.4614 57.097 10.4725C57.281 10.5145 57.356 10.6845 57.297 10.8965C56.6243 13.1465 55.951 15.3968 55.277 17.6475C55.051 18.4015 54.8257 19.1558 54.601 19.9105C54.5611 20.061 54.4841 20.1991 54.3773 20.3122C54.2704 20.4254 54.1369 20.5101 53.989 20.5585C53.937 20.5765 53.883 20.5895 53.83 20.6045H53.573C53.5648 20.5994 53.556 20.595 53.547 20.5915C53.3623 20.5597 53.1912 20.4735 53.0556 20.344C52.9201 20.2145 52.8262 20.0476 52.786 19.8645C52.438 18.6352 52.089 17.4062 51.739 16.1775C51.7336 16.1493 51.7198 16.1234 51.6995 16.1031C51.6791 16.0827 51.6532 16.069 51.625 16.0635C50.381 15.7095 49.1376 15.3538 47.895 14.9965C47.6937 14.9479 47.5182 14.8255 47.403 14.6535C47.3293 14.5155 47.2661 14.372 47.214 14.2245" fill="white"/>
<path d="M132.169 14.6415H129.152V11.6185C129.152 11.3822 129.058 11.1556 128.891 10.9885C128.724 10.8214 128.497 10.7275 128.261 10.7275C128.025 10.7275 127.798 10.8214 127.631 10.9885C127.464 11.1556 127.37 11.3822 127.37 11.6185V14.6455H124.353C124.116 14.6455 123.888 14.7397 123.721 14.9074C123.553 15.075 123.459 15.3024 123.459 15.5395C123.459 15.7766 123.553 16.004 123.721 16.1717C123.888 16.3393 124.116 16.4335 124.353 16.4335H127.37V19.4605C127.37 19.6968 127.464 19.9235 127.631 20.0906C127.798 20.2577 128.025 20.3515 128.261 20.3515C128.497 20.3515 128.724 20.2577 128.891 20.0906C129.058 19.9235 129.152 19.6968 129.152 19.4605V16.4335H132.169C132.406 16.4335 132.633 16.3393 132.801 16.1717C132.969 16.004 133.063 15.7766 133.063 15.5395C133.063 15.3024 132.969 15.075 132.801 14.9074C132.633 14.7397 132.406 14.6455 132.169 14.6455" fill="white"/>
</svg>
