<svg width="9" height="9" viewBox="0 0 9 9" fill="none" xmlns="http://www.w3.org/2000/svg">
<path d="M0.781982 3.60098V3.40098C0.787132 3.39205 0.791483 3.38268 0.794983 3.37298C0.819362 3.23256 0.884203 3.10231 0.981548 2.99822C1.07889 2.89412 1.20451 2.82071 1.34298 2.78698L6.02898 1.37498C6.82432 1.13565 7.61998 0.896648 8.41598 0.657981C8.46675 0.640656 8.52096 0.635853 8.57398 0.643981C8.71898 0.676981 8.77398 0.810981 8.72798 0.977981C8.19465 2.75131 7.66398 4.52498 7.13598 6.29898C6.95798 6.89298 6.78031 7.48765 6.60298 8.08298C6.57159 8.20158 6.51106 8.31045 6.42688 8.3997C6.3427 8.48894 6.23755 8.55573 6.12098 8.59398C6.07998 8.60798 6.03698 8.61798 5.99598 8.62998H5.79598C5.78963 8.62606 5.78293 8.62271 5.77598 8.61998C5.63032 8.59497 5.49544 8.5271 5.38856 8.42503C5.28168 8.32296 5.20767 8.19133 5.17598 8.04698C4.90198 7.07831 4.62698 6.10965 4.35098 5.14098C4.34663 5.11873 4.33575 5.09828 4.31971 5.08225C4.30368 5.06622 4.28323 5.05533 4.26098 5.05098C3.28032 4.77165 2.30032 4.49131 1.32098 4.20998C1.16235 4.17186 1.02385 4.07549 0.932983 3.93998C0.874903 3.83121 0.825093 3.71823 0.783981 3.60198" fill="#036E8A"/>
</svg>
