<svg width="9" height="9" viewBox="0 0 9 9" fill="none" xmlns="http://www.w3.org/2000/svg">
<path d="M0.461914 3.58615V3.20715C0.461914 3.17715 0.473913 3.14815 0.476913 3.11915C0.518083 2.66417 0.673566 2.22697 0.928917 1.84815C1.129 1.54727 1.39845 1.29887 1.71458 1.12388C2.03072 0.948887 2.38428 0.852429 2.74548 0.842627C3.10669 0.832825 3.46496 0.909967 3.79012 1.06755C4.11528 1.22514 4.39781 1.45856 4.61391 1.74815C4.64591 1.78715 4.67691 1.82815 4.71391 1.87415C4.75291 1.82415 4.78192 1.78415 4.81392 1.74615C5.06223 1.40557 5.40371 1.14404 5.79723 0.993058C6.19074 0.842073 6.61952 0.808073 7.03191 0.895152C7.4377 0.965541 7.81631 1.14615 8.12637 1.41722C8.43642 1.6883 8.66597 2.0394 8.78992 2.43215C8.94975 2.86004 9.00287 3.32044 8.94467 3.77349C8.88647 4.22653 8.71871 4.65856 8.45592 5.03215C8.16303 5.47695 7.81191 5.88054 7.41192 6.23215C6.63392 6.93215 5.84392 7.61215 5.05592 8.29815C5.00904 8.34326 4.95371 8.37867 4.89311 8.40234C4.83251 8.42601 4.76784 8.43747 4.7028 8.43608C4.63776 8.43469 4.57364 8.42046 4.51411 8.39422C4.45458 8.36797 4.40082 8.33023 4.35592 8.28315C3.74992 7.75982 3.14458 7.23582 2.53992 6.71115C2.02307 6.28004 1.55374 5.79495 1.13992 5.26415C0.870196 4.91743 0.673258 4.51982 0.560913 4.09515C0.520913 3.93115 0.499917 3.76315 0.470917 3.59515" fill="#036E8A"/>
</svg>
