<svg width="9" height="9" viewBox="0 0 9 9" fill="none" xmlns="http://www.w3.org/2000/svg">
<path d="M2.41385 6.77419H1.65284C1.5411 6.77979 1.42942 6.76189 1.32503 6.72164C1.22063 6.6814 1.12584 6.6197 1.04677 6.54054C0.967704 6.46138 0.906121 6.36651 0.866 6.26207C0.825878 6.15762 0.808111 6.04592 0.813845 5.93419C0.813845 4.53419 0.813845 3.13219 0.813845 1.72819C0.807977 1.61646 0.825612 1.50474 0.865609 1.40024C0.905606 1.29575 0.967075 1.20081 1.04605 1.12156C1.12502 1.0423 1.21974 0.980492 1.32409 0.940122C1.42844 0.899752 1.54009 0.881718 1.65185 0.887187H7.97685C8.0886 0.881718 8.20025 0.899752 8.3046 0.940122C8.40895 0.980492 8.50367 1.0423 8.58264 1.12156C8.66162 1.20081 8.72308 1.29575 8.76308 1.40024C8.80308 1.50474 8.82071 1.61646 8.81484 1.72819C8.81484 3.12819 8.81484 4.53019 8.81484 5.93419C8.82058 6.04592 8.80281 6.15762 8.76269 6.26207C8.72257 6.36651 8.66099 6.46138 8.58192 6.54054C8.50285 6.6197 8.40806 6.6814 8.30366 6.72164C8.19927 6.76189 8.08759 6.77979 7.97585 6.77419C6.93718 6.77419 5.89818 6.77419 4.85885 6.77419C4.80526 6.77547 4.75346 6.79367 4.71085 6.82619C4.11751 7.29819 3.52518 7.77252 2.93385 8.24919C2.90584 8.27219 2.87785 8.29519 2.84885 8.31719C2.81025 8.34935 2.76314 8.36959 2.71325 8.37545C2.66336 8.38131 2.61284 8.37253 2.56784 8.35019C2.52049 8.32858 2.48065 8.29335 2.4534 8.249C2.42615 8.20465 2.41273 8.15319 2.41484 8.10119L2.41385 6.77419ZM4.81485 3.56319H6.38985C6.57885 3.56319 6.76784 3.56319 6.95684 3.56319C7.0229 3.56159 7.08598 3.53538 7.13371 3.48968C7.18144 3.44399 7.21038 3.38211 7.21485 3.31619C7.21934 3.25151 7.20023 3.18739 7.16107 3.13572C7.1219 3.08406 7.06533 3.04834 7.00184 3.03519C6.96613 3.02961 6.92996 3.0276 6.89385 3.02919H2.72985C2.70485 3.02919 2.67984 3.02919 2.65484 3.02919C2.60432 3.0324 2.55583 3.05029 2.51533 3.08066C2.47483 3.11104 2.44407 3.15258 2.42685 3.20019C2.41035 3.24199 2.40471 3.28729 2.41046 3.33186C2.41621 3.37643 2.43315 3.41881 2.45971 3.45506C2.48628 3.49131 2.52159 3.52024 2.56236 3.53915C2.60312 3.55805 2.64802 3.56632 2.69284 3.56319C3.39818 3.56319 4.10385 3.56319 4.80985 3.56319M3.74285 4.63319C4.09085 4.63319 4.43684 4.63319 4.78484 4.63319C4.84519 4.63202 4.90429 4.61587 4.95684 4.58619C5.00505 4.55697 5.04202 4.51237 5.06179 4.45958C5.08156 4.40679 5.08299 4.34889 5.06585 4.29519C5.05076 4.23605 5.01579 4.1839 4.96681 4.14748C4.91783 4.11107 4.85782 4.0926 4.79684 4.09519H2.71785C2.67965 4.08995 2.64077 4.09296 2.60384 4.104C2.5669 4.11505 2.53275 4.13388 2.5037 4.15922C2.47465 4.18456 2.45136 4.21584 2.4354 4.25093C2.41944 4.28603 2.41119 4.32413 2.41119 4.36269C2.41119 4.40124 2.41944 4.43935 2.4354 4.47444C2.45136 4.50954 2.47465 4.54081 2.5037 4.56615C2.53275 4.5915 2.5669 4.61032 2.60384 4.62137C2.64077 4.63241 2.67965 4.63542 2.71785 4.63019H3.74285" fill="#036E8A"/>
</svg>
