<svg width="9" height="9" viewBox="0 0 9 9" fill="none" xmlns="http://www.w3.org/2000/svg">
<path d="M7.74405 3.92924H5.36604V1.54424C5.36604 1.35859 5.29229 1.18054 5.16102 1.04926C5.02974 0.917988 4.8517 0.844238 4.66605 0.844238C4.48039 0.844238 4.30234 0.917988 4.17107 1.04926C4.03979 1.18054 3.96604 1.35859 3.96604 1.54424V3.93024H1.58804C1.4012 3.93024 1.22201 4.00446 1.08989 4.13658C0.95777 4.2687 0.883545 4.44789 0.883545 4.63474C0.883545 4.82158 0.95777 5.00078 1.08989 5.1329C1.22201 5.26501 1.4012 5.33924 1.58804 5.33924H3.96604V7.72524C3.96604 7.91089 4.03979 8.08894 4.17107 8.22021C4.30234 8.35149 4.48039 8.42524 4.66605 8.42524C4.8517 8.42524 5.02974 8.35149 5.16102 8.22021C5.29229 8.08894 5.36604 7.91089 5.36604 7.72524V5.33924H7.74405C7.93089 5.33924 8.11008 5.26501 8.2422 5.1329C8.37432 5.00078 8.44855 4.82158 8.44855 4.63474C8.44855 4.44789 8.37432 4.2687 8.2422 4.13658C8.11008 4.00446 7.93089 3.93024 7.74405 3.93024" fill="#036E8A"/>
</svg>
