<svg width="28" height="28" viewBox="0 0 28 28" fill="none" xmlns="http://www.w3.org/2000/svg">
<path d="M26.765 9.70806H18.583C18.3481 9.70795 18.1192 9.6335 17.9292 9.49537C17.7391 9.35723 17.5976 9.1625 17.525 8.93906L15 1.15706C14.9274 0.933776 14.786 0.739203 14.596 0.601218C14.4061 0.463233 14.1773 0.388916 13.9425 0.388916C13.7077 0.388916 13.479 0.463233 13.289 0.601218C13.099 0.739203 12.9576 0.933776 12.885 1.15706L10.353 8.93906C10.2811 9.16194 10.1405 9.35635 9.95134 9.49447C9.76221 9.6326 9.53423 9.70736 9.30003 9.70806H1.11403C0.879363 9.70801 0.650709 9.78227 0.46085 9.92019C0.27099 10.0581 0.129677 10.2526 0.0571701 10.4758C-0.0153366 10.699 -0.0153126 10.9394 0.0572386 11.1625C0.12979 11.3857 0.271142 11.5802 0.461029 11.7181L7.08103 16.5291C7.2703 16.6673 7.41094 16.862 7.48279 17.0851C7.55465 17.3082 7.55403 17.5483 7.48103 17.7711L4.95603 25.5541C4.88348 25.7772 4.88346 26.0177 4.95598 26.2408C5.0285 26.464 5.16983 26.6585 5.35971 26.7964C5.54958 26.9344 5.77825 27.0086 6.01293 27.0085C6.24761 27.0085 6.47623 26.9341 6.66603 26.7961L13.286 21.9871C13.4761 21.8494 13.7048 21.7752 13.9395 21.7752C14.1742 21.7752 14.4029 21.8494 14.593 21.9871L21.213 26.7961C21.4028 26.9349 21.6317 27.01 21.8668 27.0104C22.1019 27.0109 22.3312 26.9368 22.5215 26.7987C22.7118 26.6607 22.8534 26.4658 22.9259 26.2421C22.9984 26.0184 22.9981 25.7775 22.925 25.5541L20.4 17.7701C20.3267 17.5473 20.3259 17.3071 20.3978 17.0839C20.4697 16.8608 20.6105 16.6661 20.8 16.5281L27.42 11.7171C27.6099 11.5792 27.7513 11.3847 27.8238 11.1615C27.8964 10.9384 27.8964 10.698 27.8239 10.4748C27.7514 10.2516 27.6101 10.0571 27.4202 9.91919C27.2303 9.78127 27.0017 9.70701 26.767 9.70706" fill="#FF8000"/>
</svg>
